<svg width="15" height="14" viewBox="0 0 15 14" fill="none" xmlns="http://www.w3.org/2000/svg">
<path d="M1 13V11.6667C1 10.9594 1.28095 10.2811 1.78105 9.78105C2.28115 9.28095 2.95942 9 3.66667 9H6.33333C7.04058 9 7.71885 9.28095 8.21895 9.78105C8.71905 10.2811 9 10.9594 9 11.6667V13M9.66667 6.33333H13.6667M11.6667 4.33333V8.33333M7.66667 3.66667C7.66667 5.13943 6.47276 6.33333 5 6.33333C3.52724 6.33333 2.33333 5.13943 2.33333 3.66667C2.33333 2.19391 3.52724 1 5 1C6.47276 1 7.66667 2.19391 7.66667 3.66667Z" stroke="#323232" stroke-width="1.4" stroke-linecap="round" stroke-linejoin="round"/>
</svg>
