<svg width="28" height="28" viewBox="0 0 28 28" fill="none" xmlns="http://www.w3.org/2000/svg">
<path d="M14 4.9893e-07C10.2883 -0.000989854 6.72817 1.47241 4.10271 4.09611C1.47726 6.71982 0.00148495 10.2789 0 13.9907C0.000490203 15.8287 0.363 17.6486 1.06683 19.3465C1.77066 21.0444 2.80203 22.5871 4.10205 23.8864C5.40207 25.1858 6.94528 26.2163 8.64358 26.9192C10.3419 27.6222 12.162 27.9837 14 27.9832C16.4379 27.9832 19.432 27.3709 21.5675 26.2155L26.7755 27.9365C26.9399 27.9905 27.1162 27.9977 27.2845 27.9573C27.4528 27.9169 27.6066 27.8304 27.7286 27.7076C27.8506 27.5848 27.9361 27.4305 27.9754 27.262C28.0148 27.0934 28.0065 26.9172 27.9515 26.7531L26.2229 21.5805C27.4773 19.3909 28 16.5293 28 13.9907C27.9985 10.2789 26.5227 6.71982 23.8973 4.09611C21.2718 1.47241 17.7117 -0.000989854 14 4.9893e-07Z" fill="#404040"/>
</svg>
