<svg width="15" height="15" viewBox="0 0 15 15" fill="none" xmlns="http://www.w3.org/2000/svg">
<path d="M6.86333 13H2.33333C1.97971 13 1.64057 12.8595 1.39052 12.6095C1.14048 12.3594 1 12.0203 1 11.6667V3.66667C1 3.31304 1.14048 2.97391 1.39052 2.72386C1.64057 2.47381 1.97971 2.33333 2.33333 2.33333H10.3333C10.687 2.33333 11.0261 2.47381 11.2761 2.72386C11.5262 2.97391 11.6667 3.31304 11.6667 3.66667V6.33333H1M9 1V3.66667M3.66667 1V3.66667M11 9.9974V11.0001L11.6667 11.6667M13.6667 11C13.6667 12.4728 12.4728 13.6667 11 13.6667C9.52724 13.6667 8.33333 12.4728 8.33333 11C8.33333 9.52724 9.52724 8.33333 11 8.33333C12.4728 8.33333 13.6667 9.52724 13.6667 11Z" stroke="#323232" stroke-linecap="round" stroke-linejoin="round"/>
</svg>
