<svg width="14" height="8" viewBox="0 0 14 8" fill="none" xmlns="http://www.w3.org/2000/svg">
<path d="M2.33333 2.66683C2.70152 2.66683 3 2.36835 3 2.00016C3 1.63197 2.70152 1.3335 2.33333 1.3335C1.96514 1.3335 1.66667 1.63197 1.66667 2.00016C1.66667 2.36835 1.96514 2.66683 2.33333 2.66683Z" stroke="#323232" stroke-width="1.4" stroke-linecap="round" stroke-linejoin="round"/>
<path d="M2.33333 6.66683C2.70152 6.66683 3 6.36835 3 6.00016C3 5.63197 2.70152 5.3335 2.33333 5.3335C1.96514 5.3335 1.66667 5.63197 1.66667 6.00016C1.66667 6.36835 1.96514 6.66683 2.33333 6.66683Z" stroke="#323232" stroke-width="1.4" stroke-linecap="round" stroke-linejoin="round"/>
<path d="M7 2.66683C7.36819 2.66683 7.66667 2.36835 7.66667 2.00016C7.66667 1.63197 7.36819 1.3335 7 1.3335C6.63181 1.3335 6.33333 1.63197 6.33333 2.00016C6.33333 2.36835 6.63181 2.66683 7 2.66683Z" stroke="#323232" stroke-width="1.4" stroke-linecap="round" stroke-linejoin="round"/>
<path d="M7 6.66683C7.36819 6.66683 7.66667 6.36835 7.66667 6.00016C7.66667 5.63197 7.36819 5.3335 7 5.3335C6.63181 5.3335 6.33333 5.63197 6.33333 6.00016C6.33333 6.36835 6.63181 6.66683 7 6.66683Z" stroke="#323232" stroke-width="1.4" stroke-linecap="round" stroke-linejoin="round"/>
<path d="M11.6667 2.66683C12.0349 2.66683 12.3333 2.36835 12.3333 2.00016C12.3333 1.63197 12.0349 1.3335 11.6667 1.3335C11.2985 1.3335 11 1.63197 11 2.00016C11 2.36835 11.2985 2.66683 11.6667 2.66683Z" stroke="#323232" stroke-width="1.4" stroke-linecap="round" stroke-linejoin="round"/>
<path d="M11.6667 6.66683C12.0349 6.66683 12.3333 6.36835 12.3333 6.00016C12.3333 5.63197 12.0349 5.3335 11.6667 5.3335C11.2985 5.3335 11 5.63197 11 6.00016C11 6.36835 11.2985 6.66683 11.6667 6.66683Z" stroke="#323232" stroke-width="1.4" stroke-linecap="round" stroke-linejoin="round"/>
</svg>
