<svg width="20" height="20" viewBox="0 0 20 20" fill="none" xmlns="http://www.w3.org/2000/svg">
<path d="M1.60001 7H18.4M1.60001 13H18.4M9.49998 1C7.81532 3.69961 6.92218 6.81787 6.92218 10C6.92218 13.1821 7.81532 16.3004 9.49998 19M10.5 1C12.1847 3.69961 13.0778 6.81787 13.0778 10C13.0778 13.1821 12.1847 16.3004 10.5 19M19 10C19 14.9706 14.9706 19 10 19C5.02944 19 1 14.9706 1 10C1 5.02944 5.02944 1 10 1C14.9706 1 19 5.02944 19 10Z" stroke="#323232" stroke-width="1.4" stroke-linecap="round" stroke-linejoin="round"/>
</svg>
