<svg width="24" height="33" viewBox="0 0 24 33" fill="none" xmlns="http://www.w3.org/2000/svg">
<path fill-rule="evenodd" clip-rule="evenodd" d="M17.5692 22.971C17.5024 23.1291 17.4374 23.2879 17.3742 23.4475C13.8862 24.5867 10.1139 24.5867 6.62585 23.4475C6.56279 23.2879 6.49778 23.1291 6.43085 22.971C6.2456 22.5326 6.152 22.3115 5.99015 22.1095C5.83025 21.9056 5.54945 21.6997 4.98785 21.29C3.02146 19.851 1.56832 17.8436 0.834423 15.5523C0.100522 13.261 0.123085 10.8021 0.898914 8.52405C1.67474 6.246 3.16448 4.2644 5.15696 2.86014C7.14944 1.45588 9.54359 0.700195 12 0.700195C14.4565 0.700195 16.8507 1.45588 18.8431 2.86014C20.8356 4.2644 22.3254 6.246 23.1012 8.52405C23.877 10.8021 23.8996 13.261 23.1657 15.5523C22.4318 17.8436 20.9786 19.851 19.0122 21.29C18.4506 21.6997 18.1698 21.9056 18.0099 22.1095C17.8481 22.3115 17.7564 22.5307 17.5692 22.971ZM7.80755 27.6977C7.9772 28.7021 8.07275 29.7199 8.09615 30.7434C8.09812 30.8787 8.13784 31.0109 8.21103 31.1258C8.28423 31.2406 8.38812 31.3338 8.5115 31.3952C9.59465 31.9246 10.789 32.2002 12 32.2002C13.2111 32.2002 14.4055 31.9246 15.4886 31.3952C15.612 31.3338 15.7159 31.2406 15.7891 31.1258C15.8623 31.0109 15.902 30.8787 15.9039 30.7434C15.9273 29.7199 16.0229 28.704 16.1925 27.6977C13.4263 28.2523 10.5737 28.2523 7.80755 27.6977Z" fill="#404040"/>
</svg>
