<svg width="26" height="32" viewBox="0 0 26 32" fill="none" xmlns="http://www.w3.org/2000/svg">
<path fill-rule="evenodd" clip-rule="evenodd" d="M17.7499 0.166504C18.3058 0.166518 18.8518 0.312845 19.3332 0.590777C19.8146 0.868709 20.2143 1.26845 20.4923 1.74984H22.4999C23.3398 1.74984 24.1452 2.08347 24.7391 2.67733C25.333 3.2712 25.6666 4.07665 25.6666 4.9165V23.9165C25.6666 26.0161 24.8325 28.0298 23.3478 29.5144C21.8632 30.9991 19.8495 31.8332 17.7499 31.8332H3.49992C2.66007 31.8332 1.85461 31.4995 1.26075 30.9057C0.666882 30.3118 0.333252 29.5064 0.333252 28.6665V4.9165C0.333252 4.07665 0.666882 3.2712 1.26075 2.67733C1.85461 2.08347 2.66007 1.74984 3.49992 1.74984H5.50759C5.78551 1.26845 6.18525 0.868709 6.66663 0.590777C7.14801 0.312845 7.69407 0.166518 8.24992 0.166504H17.7499ZM17.4713 11.8499L10.7548 18.568L8.51433 16.3276C8.21571 16.0392 7.81576 15.8796 7.40062 15.8832C6.98547 15.8868 6.58835 16.0533 6.29479 16.3469C6.00123 16.6404 5.83471 17.0376 5.8311 17.4527C5.82749 17.8678 5.98708 18.2678 6.2755 18.5664L9.52134 21.8138C9.68307 21.9757 9.87511 22.104 10.0865 22.1916C10.2978 22.2792 10.5244 22.3242 10.7532 22.3242C10.982 22.3242 11.2085 22.2792 11.4199 22.1916C11.6312 22.104 11.8233 21.9757 11.985 21.8138L19.7117 14.0888C19.8587 13.9416 19.9753 13.767 20.0548 13.5749C20.1343 13.3827 20.1752 13.1767 20.1751 12.9688C20.175 12.7608 20.134 12.5549 20.0543 12.3628C19.9747 12.1707 19.858 11.9961 19.7109 11.8491C19.5638 11.7021 19.3891 11.5855 19.197 11.506C19.0048 11.4265 18.7989 11.3856 18.5909 11.3857C18.3829 11.3858 18.177 11.4268 17.9849 11.5064C17.7928 11.5861 17.6183 11.7028 17.4713 11.8499ZM16.9583 3.33317H9.04158C8.85629 3.33311 8.67685 3.39804 8.53451 3.51666C8.39216 3.63528 8.29594 3.80007 8.26259 3.98234L8.24992 4.12484V5.70817C8.24986 5.89346 8.31479 6.0729 8.43341 6.21525C8.55203 6.35759 8.71682 6.45382 8.89909 6.48717L9.04158 6.49984H16.9583C17.1435 6.4999 17.323 6.43497 17.4653 6.31635C17.6077 6.19773 17.7039 6.03293 17.7373 5.85067L17.7499 5.70817V4.12484C17.75 3.93955 17.685 3.7601 17.5664 3.61776C17.4478 3.47542 17.283 3.37919 17.1008 3.34584L16.9583 3.33317Z" fill="#404040"/>
</svg>
