<svg width="34" height="28" viewBox="0 0 34 28" fill="none" xmlns="http://www.w3.org/2000/svg">
<path d="M0.333252 13.1665V14.8332C0.333252 20.3115 0.333252 23.0515 1.84659 24.8965C2.12341 25.2338 2.43267 25.543 2.76992 25.8198C4.61659 27.3332 7.35325 27.3332 12.8333 27.3332C18.3116 27.3332 21.0516 27.3332 22.8966 25.8198C23.2333 25.5432 23.5433 25.2332 23.8199 24.8965C24.9899 23.4715 25.2549 21.5115 25.3149 18.1665L26.4316 18.7165C29.6733 20.3365 31.2949 21.1482 32.4816 20.4148C33.6666 19.6815 33.6666 17.8698 33.6666 14.2432V13.7565C33.6666 10.1315 33.6666 8.31817 32.4816 7.58484C31.2949 6.8515 29.6733 7.66317 26.4316 9.28484L25.3149 9.83317C25.2549 6.48817 24.9899 4.52817 23.8199 3.10317C23.5431 2.76592 23.2338 2.45666 22.8966 2.17984C21.0499 0.666504 18.3133 0.666504 12.8333 0.666504C7.35492 0.666504 4.61492 0.666504 2.76992 2.17984C2.43267 2.45666 2.12341 2.76592 1.84659 3.10317C0.333252 4.94984 0.333252 7.6865 0.333252 13.1665Z" fill="white"/>
</svg>
